<?xml version="1.0" encoding="UTF-8" standalone="no"?>
<!DOCTYPE svg PUBLIC "-//W3C//DTD SVG 1.1//EN" "http://www.w3.org/Graphics/SVG/1.1/DTD/svg11.dtd">
<svg width="100%" height="100%" viewBox="0 0 110 135" version="1.1" xmlns="http://www.w3.org/2000/svg" xmlns:xlink="http://www.w3.org/1999/xlink" xml:space="preserve" xmlns:serif="http://www.serif.com/" style="fill-rule:evenodd;clip-rule:evenodd;stroke-linejoin:round;stroke-miterlimit:2;">
    <g transform="matrix(1,0,0,1,5,10)">
        <path d="M72.2,10.1C71.25,9.62 70.1,9.67 69.21,10.25L50,22.74L30.79,10.25C29.9,9.67 28.75,9.61 27.8,10.1C26.85,10.58 26.26,11.53 26.26,12.57L26.26,87.29C26.26,88.83 27.56,90.08 29.16,90.08C30.76,90.08 32.06,88.83 32.06,87.29L32.06,41.15L50,29.49L67.94,41.15L67.94,87.43C67.94,88.97 69.24,90.22 70.84,90.22C72.44,90.22 73.74,88.97 73.74,87.43L73.74,12.57C73.74,11.53 73.15,10.59 72.2,10.1ZM32.06,34.4L32.06,17.83L44.81,26.12L32.06,34.4ZM67.94,34.4L55.19,26.11L67.94,17.82L67.94,34.4Z" style="fill-rule:nonzero;"/>
    </g>
</svg>
